<?xml version="1.0" encoding="UTF-8" standalone="no"?>
<svg
   xmlns:dc="http://purl.org/dc/elements/1.1/"
   xmlns:cc="http://creativecommons.org/ns#"
   xmlns:rdf="http://www.w3.org/1999/02/22-rdf-syntax-ns#"
   xmlns:svg="http://www.w3.org/2000/svg"
   xmlns="http://www.w3.org/2000/svg"
   viewBox="0 0 1031.25 213.75"
   height="213.75"
   width="1031.25"
   xml:space="preserve"
   version="1.1"
   id="svg2"><metadata
     id="metadata8"><rdf:RDF><cc:Work
         rdf:about=""><dc:format>image/svg+xml</dc:format><dc:type
           rdf:resource="http://purl.org/dc/dcmitype/StillImage" /></cc:Work></rdf:RDF></metadata><defs
     id="defs6"><clipPath
       id="clipPath18"
       clipPathUnits="userSpaceOnUse"><path
         id="path20"
         d="M 0,0 825,0 825,171 0,171 0,0 Z" /></clipPath></defs><g
     transform="matrix(1.25,0,0,-1.25,0,213.75)"
     id="g10"><g
       id="g12" /><g
       id="g14"><g
         clip-path="url(#clipPath18)"
         id="g16"><path
           id="path22"
           style="fill:#ffffff;fill-opacity:0;fill-rule:nonzero;stroke:none"
           d="M 0,171 825,171 825,0 0,0 0,171 Z" /><path
           id="path24"
           style="fill:#ffffff;fill-opacity:1;fill-rule:nonzero;stroke:none"
           d="M 123.359,1.203583 102.3924,22.1702 163.8538,83.63161 103.3617,144.1237 123.359,164.121 204.8177,82.66228 123.359,1.203583 Z" /><g
           transform="matrix(-5.56777e-5,5.56777e-5,5.56777e-5,5.56777e-5,123.359,1.203583)"
           id="g26"><path
             id="path28"
             style="fill:none;stroke:#000000;stroke-width:12700;stroke-linecap:round;stroke-linejoin:round;stroke-miterlimit:10;stroke-dasharray:none;stroke-opacity:1"
             d="m 0,0 376571.2,0 0,1103878 1086468.8,0 0,359162 L 0,1463040 0,0 Z" /></g><path
           id="path30"
           style="fill:#000000;fill-opacity:1;fill-rule:nonzero;stroke:none"
           d="m 332.7465,156.084 c 2.6452,0 4.8625,-0.0972 6.6519,-0.2917 1.7894,-0.1945 3.1703,-0.5251 4.1428,-0.9919 0.9725,-0.4668 1.6532,-1.0114 2.0423,-1.6338 0.389,-0.6224 0.5834,-1.3226 0.5834,-2.1006 l 0,-135.72121 c 0,-1.78939 -0.3111,-3.38428 -0.9335,-4.78467 -0.6225,-1.400391 -1.4588,-2.567382 -2.5091,-3.500977 -1.0503,-0.933594 -2.2951,-1.61434 -3.7344,-2.042237 -1.4393,-0.427896 -2.898,-0.641846 -4.3762,-0.641846 l -13.0703,0 c -2.723,0 -5.0764,0.2723 -7.0603,0.816895 -1.9839,0.544597 -3.8122,1.536541 -5.4849,2.975832 -1.6726,1.439288 -3.287,3.384273 -4.843,5.834963 -1.556,2.45068 -3.3064,5.62101 -5.2514,9.51098 l -37.5772,70.60303 c -2.1784,4.20117 -4.3957,8.73294 -6.6518,13.59544 -2.2562,4.8625 -4.279,9.5888 -6.0684,14.179 l -0.2334,0 c 0.3112,-5.6016 0.5446,-11.1837 0.7002,-16.7464 0.1556,-5.56263 0.2334,-11.30033 0.2334,-17.2131 l 0,-79.005368 c 0,-0.777997 -0.214,-1.478192 -0.6419,-2.100588 -0.4278,-0.622396 -1.1669,-1.147542 -2.2172,-1.575439 -1.0503,-0.427898 -2.4702,-0.758545 -4.2596,-0.991944 -1.7893,-0.233397 -4.0844,-0.350097 -6.8852,-0.350097 -2.723,0 -4.9792,0.1167 -6.7686,0.350097 -1.7894,0.233399 -3.1897,0.564046 -4.2011,0.991944 -1.0114,0.427897 -1.7116,0.953043 -2.1006,1.575439 -0.389,0.622396 -0.5835,1.322591 -0.5835,2.100588 l 0,135.721168 c 0,3.6566 1.0697,6.399 3.2092,8.2273 2.1395,1.8283 4.7652,2.7424 7.8772,2.7424 l 16.4546,0 c 2.9564,0 5.446,-0.2528 7.4687,-0.7585 2.0228,-0.5057 3.8317,-1.342 5.4266,-2.509 1.5948,-1.167 3.0925,-2.7814 4.4929,-4.843 1.4004,-2.0617 2.8397,-4.6097 4.3179,-7.6438 l 29.4082,-55.19878 c 1.7115,-3.34538 3.4037,-6.6324 5.0764,-9.86108 1.6727,-3.22868 3.287,-6.45736 4.843,-9.68604 1.556,-3.22867 3.0731,-6.39901 4.5513,-9.51098 1.4782,-3.11198 2.9174,-6.22396 4.3178,-9.33594 l 0.1167,0 c -0.2334,5.44596 -0.4084,11.12533 -0.5251,17.03809 -0.1167,5.91276 -0.1751,11.55322 -0.1751,16.92138 l 0,70.83645 c 0,0.778 0.2334,1.4782 0.7002,2.1006 0.4668,0.6224 1.2448,1.167 2.334,1.6338 1.0892,0.4668 2.5285,0.7974 4.3179,0.9919 1.7894,0.1945 4.0845,0.2917 6.8852,0.2917 z" /><g
           transform="matrix(1,0,0,-1,205.1943,4.608459)"
           id="g32"><path
             id="path34"
             style="fill:none;stroke:#000000;stroke-width:1;stroke-linecap:butt;stroke-linejoin:round;stroke-miterlimit:10;stroke-dasharray:none;stroke-opacity:1"
             d="m 127.5522,-151.4756 c 2.6452,0 4.8625,0.0973 6.6519,0.2918 1.7894,0.1945 3.1703,0.5251 4.1428,0.9919 0.9725,0.4668 1.6533,1.0114 2.0423,1.6338 0.389,0.6224 0.5835,1.3226 0.5835,2.1006 l 0,135.72117 c 0,1.78939 -0.3112,3.384279 -0.9336,4.784671 -0.6224,1.40039 -1.4588,2.567381 -2.5091,3.500975 -1.0503,0.933594 -2.295,1.6143402 -3.7343,2.0422378 -1.4393,0.42789537 -2.8981,0.6418453 -4.3763,0.6418453 l -13.0703,0 c -2.723,0 -5.0764,-0.27229971 -7.0603,-0.8168946 -1.9839,-0.5445975 -3.8122,-1.5365415 -5.4848,-2.9758315 -1.6727,-1.439289 -3.2871,-3.384276 -4.84306,-5.83496 -1.55599,-2.450683 -3.30648,-5.621013 -5.25147,-9.510983 L 56.13232,-89.5083 c -2.17837,-4.20117 -4.39566,-8.73299 -6.65185,-13.5955 -2.25619,-4.8624 -4.27897,-9.5888 -6.06836,-14.1789 l -0.2334,0 c 0.3112,5.6015 0.54459,11.1837 0.7002,16.7463 0.1556,5.56269 0.23339,11.30039 0.23339,17.21316 l 0,79.005368 c 0,0.777996 -0.21394,1.478191 -0.64184,2.100587 -0.42789,0.622396 -1.16699,1.147542 -2.21729,1.5754397 -1.05029,0.4278976 -2.47012,0.7585449 -4.25952,0.991944 -1.78939,0.2333968 -4.08447,0.3500964 -6.88525,0.3500964 -2.72298,0 -4.97917,-0.1166996 -6.76855,-0.3500964 -1.78939,-0.2333991 -3.18978,-0.5640464 -4.20118,-0.991944 -1.01139,-0.4278977 -1.71159,-0.9530437 -2.10058,-1.5754397 -0.389,-0.622396 -0.5835,-1.322591 -0.5835,-2.100587 l 0,-135.721228 c 0,-3.6565 1.06975,-6.399 3.20923,-8.2273 2.13948,-1.8282 4.76522,-2.7424 7.8772,-2.7424 l 16.45459,0 c 2.95638,0 5.44596,0.2528 7.46875,0.7586 2.02278,0.5057 3.83162,1.342 5.42651,2.509 1.59489,1.167 3.09253,2.7813 4.49292,4.843 1.40039,2.0617 2.83967,4.6096 4.31787,7.6438 l 29.4082,55.19874 c 1.7116,3.34538 3.40374,6.6324 5.07644,9.86108 1.6727,3.22868 3.287,6.45736 4.843,9.68604 1.556,3.22867 3.0731,6.399 4.5513,9.51098 1.4782,3.11198 2.9174,6.22396 4.3178,9.33594 l 0.1167,0 c -0.2334,-5.44596 -0.4084,-11.12533 -0.5251,-17.03809 -0.1167,-5.91276 -0.1751,-11.55322 -0.1751,-16.92138 l 0,-70.83641 c 0,-0.778 0.2334,-1.4782 0.7002,-2.1006 0.4668,-0.6224 1.2448,-1.167 2.334,-1.6338 1.0892,-0.4668 2.5285,-0.7974 4.3179,-0.9919 1.7894,-0.1945 4.0845,-0.2918 6.8852,-0.2918 z" /></g><path
           id="path36"
           style="fill:#660066;fill-opacity:1;fill-rule:nonzero;stroke:none"
           d="m 391.0532,156.3174 c 3.0342,0 5.5238,-0.1167 7.4687,-0.3501 1.945,-0.2334 3.501,-0.5445 4.668,-0.9335 1.167,-0.3891 2.0033,-0.8947 2.509,-1.5171 0.5057,-0.6224 0.7586,-1.3226 0.7586,-2.1006 l 0,-142.60647 c 0,-0.777992 -0.2529,-1.47819 -0.7586,-2.100584 -0.5057,-0.622397 -1.342,-1.128092 -2.509,-1.517091 -1.167,-0.388996 -2.723,-0.700195 -4.668,-0.933593 -1.9449,-0.233398 -4.4345,-0.350097 -7.4687,-0.350097 -2.9564,0 -5.4265,0.116699 -7.4104,0.350097 -1.9839,0.233398 -3.5593,0.544597 -4.7263,0.933593 -1.167,0.388999 -2.0034,0.894694 -2.5091,1.517091 -0.5057,0.622394 -0.7585,1.322592 -0.7585,2.100584 l 0,142.60647 c 0,0.778 0.2528,1.4782 0.7585,2.1006 0.5057,0.6224 1.3615,1.128 2.5674,1.5171 1.2059,0.389 2.7814,0.7001 4.7263,0.9335 1.945,0.2334 4.3957,0.3501 7.3521,0.3501 z" /><g
           transform="matrix(1,0,0,-1,359.1943,4.608459)"
           id="g38"><path
             id="path40"
             style="fill:none;stroke:#660066;stroke-width:1;stroke-linecap:butt;stroke-linejoin:round;stroke-miterlimit:10;stroke-dasharray:none;stroke-opacity:1"
             d="m 31.85889,-151.709 c 3.03418,0 5.52376,0.1167 7.46875,0.3501 1.94498,0.2334 3.50097,0.5446 4.66797,0.9336 1.16699,0.389 2.00333,0.8947 2.50903,1.5171 0.5057,0.6224 0.75854,1.3226 0.75854,2.1006 l 0,142.606429 c 0,0.777993 -0.25284,1.47819 -0.75854,2.100585 -0.5057,0.622396 -1.34204,1.1280918 -2.50903,1.5170904 -1.167,0.3889963 -2.72299,0.7001947 -4.66797,0.933593 -1.94499,0.2333982 -4.43457,0.3500974 -7.46875,0.3500974 -2.95638,0 -5.42652,-0.1166992 -7.4104,-0.3500974 C 22.4646,0.1166991 20.88916,-0.1944993 19.72217,-0.5834956 18.55518,-0.9724942 17.71883,-1.47819 17.21313,-2.100586 16.70744,-2.722981 16.45459,-3.423178 16.45459,-4.201171 l 0,-142.606429 c 0,-0.778 0.25285,-1.4782 0.75854,-2.1006 0.5057,-0.6224 1.3615,-1.1281 2.56739,-1.5171 1.20589,-0.389 2.78133,-0.7002 4.72632,-0.9336 1.94498,-0.2334 4.39567,-0.3501 7.35205,-0.3501 z" /></g><path
           id="path42"
           style="fill:#000000;fill-opacity:1;fill-rule:nonzero;stroke:none"
           d="m 715.914,126.7925 -21.3559,-64.18453 42.8286,0 -21.356,64.18453 -0.1167,0 z M 547.7466,156.084 c 2.6451,0 4.8624,-0.0972 6.6518,-0.2917 1.7894,-0.1945 3.1703,-0.5251 4.1428,-0.9919 0.9725,-0.4668 1.6533,-1.0114 2.0423,-1.6338 0.389,-0.6224 0.5835,-1.3226 0.5835,-2.1006 l 0,-135.72121 c 0,-1.78939 -0.3112,-3.38428 -0.9336,-4.78467 C 559.611,9.159729 558.7746,7.992736 557.7243,7.059143 556.674,6.12555 555.4293,5.444805 553.99,5.016906 552.5507,4.58901 551.0919,4.375061 549.6138,4.375061 l -13.0704,0 c -2.723,0 -5.0764,0.272299 -7.0603,0.816894 -1.9839,0.544597 -3.8121,1.53654 -5.4848,2.975829 -1.6727,1.439293 -3.2871,3.384276 -4.8431,5.834966 -1.5559,2.45068 -3.3064,5.62101 -5.2514,9.51098 l -37.5772,70.60303 c -2.1783,4.20117 -4.3956,8.73294 -6.6518,13.59544 -2.2562,4.8625 -4.279,9.5888 -6.0684,14.179 l -0.2334,0 c 0.3112,-5.6016 0.5446,-11.1837 0.7002,-16.7464 0.1556,-5.56263 0.2334,-11.30033 0.2334,-17.2131 l 0,-79.005369 c 0,-0.777996 -0.2139,-1.47819 -0.6418,-2.100586 -0.4279,-0.622396 -1.167,-1.147542 -2.2173,-1.57544 -1.0503,-0.427896 -2.4701,-0.758545 -4.2595,-0.991943 -1.7894,-0.233398 -4.0845,-0.350097 -6.8853,-0.350097 -2.723,0 -4.9792,0.116699 -6.7685,0.350097 -1.7894,0.233398 -3.1898,0.564047 -4.2012,0.991943 -1.0114,0.427898 -1.7116,0.953044 -2.1006,1.57544 -0.389,0.622396 -0.5835,1.32259 -0.5835,2.100586 l 0,135.721169 c 0,3.6566 1.0697,6.399 3.2092,8.2273 2.1395,1.8283 4.7652,2.7424 7.8772,2.7424 l 16.4546,0 c 2.9564,0 5.446,-0.2528 7.4688,-0.7585 2.0228,-0.5057 3.8316,-1.342 5.4265,-2.509 1.5949,-1.167 3.0925,-2.7814 4.4929,-4.843 1.4004,-2.0617 2.8397,-4.6097 4.3179,-7.6438 l 29.4082,-55.19878 c 1.7116,-3.34538 3.4037,-6.6324 5.0764,-9.86108 1.6727,-3.22868 3.287,-6.45736 4.843,-9.68604 1.556,-3.22867 3.0731,-6.39901 4.5513,-9.51098 1.4782,-3.11198 2.9175,-6.22396 4.3178,-9.33594 l 0.1167,0 c -0.2333,5.44596 -0.4084,11.12533 -0.5251,17.03809 -0.1167,5.91276 -0.175,11.55322 -0.175,16.92138 l 0,70.83645 c 0,0.778 0.2334,1.4782 0.7001,2.1006 0.4668,0.6224 1.2448,1.167 2.334,1.6338 1.0892,0.4668 2.5285,0.7974 4.3179,0.9919 1.7894,0.1945 4.0845,0.2917 6.8853,0.2917 z m 168.6342,0.2334 c 4.5902,0 8.2468,-0.0583 10.9698,-0.175 2.7229,-0.1167 4.843,-0.389 6.3601,-0.8169 1.5171,-0.4279 2.6062,-1.0697 3.2675,-1.9255 0.6614,-0.8558 1.2254,-2.0228 1.6922,-3.501 L 785.3501,16.04498 c 0.9336,-2.80078 1.5171,-5.01806 1.7505,-6.651853 0.2334,-1.633789 -0.0778,-2.85913 -0.9336,-3.676026 -0.8558,-0.816894 -2.3729,-1.322591 -4.5513,-1.517088 -2.1784,-0.1945 -5.1737,-0.291748 -8.9858,-0.291748 -3.9678,0 -7.0604,0.058349 -9.2776,0.175048 -2.2173,0.1167 -3.9095,0.350098 -5.0765,0.700195 -1.1669,0.350097 -1.9838,0.836345 -2.4506,1.458741 -0.4668,0.622396 -0.8558,1.43929 -1.167,2.450684 l -10.1529,30.341797 -56.7158,0 -9.5693,-29.524903 C 677.909,8.420634 677.5005,7.50649 676.9948,6.767395 676.4891,6.0283 675.6723,5.444805 674.5442,5.016906 c -1.1281,-0.427896 -2.723,-0.719643 -4.7847,-0.875243 -2.0617,-0.1556 -4.7652,-0.233398 -8.1106,-0.233398 -3.5788,0 -6.3796,0.116699 -8.4023,0.350097 -2.0228,0.233398 -3.4232,0.797445 -4.2012,1.69214 -0.778,0.894692 -1.0503,2.158933 -0.8169,3.792723 0.2334,1.633785 0.8169,3.812175 1.7505,6.535155 l 46.563,133.97072 c 0.4668,1.3226 1.0113,2.3923 1.6338,3.2092 0.6224,0.8169 1.6143,1.4393 2.9758,1.8672 1.3615,0.4279 3.2481,0.7002 5.6599,0.8169 2.4118,0.1167 5.6016,0.175 9.5693,0.175 z m -94.6899,0 c 2.9564,0 5.4071,-0.0972 7.352,-0.2917 1.945,-0.1945 3.5205,-0.4862 4.7264,-0.8752 1.2059,-0.3891 2.0616,-0.8753 2.5673,-1.4588 0.5057,-0.5835 0.7586,-1.2642 0.7586,-2.0422 l 0,-105.02932 c 0,-6.84635 -0.6419,-13.01196 -1.9256,-18.49683 -1.2836,-5.48486 -3.462,-10.15283 -6.5351,-14.0039 -3.0731,-3.85108 -7.0992,-6.788008 -12.0784,-8.810796 -4.9791,-2.022785 -11.1253,-3.034179 -18.4385,-3.034179 -2.3339,0 -4.6485,0.175049 -6.9436,0.525146 -2.295,0.350097 -4.3956,0.797445 -6.3017,1.342042 -1.9061,0.544595 -3.5593,1.128093 -4.9597,1.750489 -1.4004,0.622394 -2.334,1.18644 -2.8008,1.692137 -0.4668,0.505697 -0.8558,1.030843 -1.167,1.57544 -0.3112,0.544598 -0.5835,1.264241 -0.8169,2.158941 -0.2334,0.89469 -0.389,2.00333 -0.4668,3.32592 -0.0778,1.3226 -0.1167,2.99528 -0.1167,5.01807 0,2.64518 0.0584,4.88191 0.1751,6.7102 0.1167,1.82829 0.3112,3.26758 0.5834,4.31787 0.2723,1.0503 0.6613,1.78939 1.167,2.21729 0.5057,0.4279 1.1476,0.64185 1.9256,0.64185 0.7002,0 1.5171,-0.25285 2.4507,-0.75855 0.9336,-0.50569 1.9838,-1.03084 3.1508,-1.57544 1.167,-0.5446 2.5285,-1.06974 4.0845,-1.57544 1.556,-0.50569 3.3843,-0.75854 5.4849,-0.75854 2.1006,0 3.9483,0.29175 5.5432,0.87524 1.5949,0.5835 2.9175,1.59489 3.9678,3.03418 1.0503,1.43929 1.8477,3.36483 2.3923,5.77661 0.5446,2.41178 0.8169,5.52377 0.8169,9.33594 l 0,103.74563 c 0,0.778 0.2528,1.4587 0.7585,2.0422 0.5057,0.5835 1.3226,1.0697 2.4507,1.4588 1.1281,0.389 2.7035,0.6807 4.7263,0.8752 2.0228,0.1945 4.5124,0.2917 7.4688,0.2917 z" /><g
           transform="matrix(1,0,0,-1,420.1943,4.608459)"
           id="g44"><path
             id="path46"
             style="fill:none;stroke:#000000;stroke-width:1;stroke-linecap:butt;stroke-linejoin:round;stroke-miterlimit:10;stroke-dasharray:none;stroke-opacity:1"
             d="m 295.7197,-122.1841 -21.3559,64.18459 42.8286,0 -21.356,-64.18459 -0.1167,0 z m -168.1674,-29.2915 c 2.6451,0 4.8624,0.0973 6.6518,0.2918 1.7894,0.1945 3.1703,0.5251 4.1428,0.9919 0.9725,0.4668 1.6533,1.0114 2.0423,1.6338 0.389,0.6224 0.5835,1.3226 0.5835,2.1006 l 0,135.72117 c 0,1.78939 -0.3112,3.384279 -0.9336,4.784671 -0.6224,1.400389 -1.4588,2.567383 -2.5091,3.500975 -1.0503,0.933593 -2.295,1.6143389 -3.7343,2.0422371 -1.4393,0.42789599 -2.8981,0.6418451 -4.3763,0.6418451 l -13.0703,0 c -2.723,0 -5.0764,-0.27229867 -7.0603,-0.8168938 -1.9839,-0.5445974 -3.8122,-1.5365394 -5.4848,-2.9758294 -1.6727,-1.439292 -3.2871,-3.384279 -4.84306,-5.834962 -1.55598,-2.450683 -3.30647,-5.621013 -5.25147,-9.510983 L 56.13233,-89.5083 c -2.17838,-4.20117 -4.39567,-8.73299 -6.65185,-13.5955 -2.25619,-4.8624 -4.27897,-9.5888 -6.06837,-14.1789 l -0.23339,0 c 0.31119,5.6015 0.54459,11.1837 0.70019,16.7463 0.1556,5.56269 0.2334,11.30039 0.2334,17.21316 l 0,79.005368 c 0,0.777996 -0.21395,1.478191 -0.64185,2.100587 -0.42789,0.622396 -1.16699,1.147542 -2.21728,1.5754399 -1.0503,0.427896 -2.47013,0.7585442 -4.25952,0.9919424 -1.78939,0.2333983 -4.08448,0.3500974 -6.88526,0.3500974 -2.72298,0 -4.97917,-0.1166991 -6.76855,-0.3500974 -1.78939,-0.2333982 -3.18978,-0.5640464 -4.20117,-0.9919424 -1.01139,-0.4278979 -1.71159,-0.9530439 -2.10059,-1.5754399 -0.389,-0.622396 -0.5835,-1.322591 -0.5835,-2.100587 l 0,-135.721228 c 0,-3.6565 1.06975,-6.399 3.20923,-8.2273 2.13949,-1.8282 4.76522,-2.7424 7.8772,-2.7424 l 16.45459,0 c 2.95638,0 5.44596,0.2528 7.46875,0.7586 2.02279,0.5057 3.83163,1.342 5.42651,2.509 1.59489,1.167 3.09253,2.7813 4.49292,4.843 1.40039,2.0617 2.83968,4.6096 4.31787,7.6438 l 29.4082,55.19874 c 1.7116,3.34538 3.40374,6.6324 5.07644,9.86108 1.6727,3.22868 3.287,6.45736 4.843,9.68604 1.556,3.22867 3.0731,6.399 4.5513,9.51098 1.4782,3.11198 2.9174,6.22396 4.3178,9.33594 l 0.1167,0 c -0.2334,-5.44596 -0.4084,-11.12533 -0.5251,-17.03809 -0.1167,-5.91276 -0.1751,-11.55322 -0.1751,-16.92138 l 0,-70.83641 c 0,-0.778 0.2334,-1.4782 0.7002,-2.1006 0.4668,-0.6224 1.2448,-1.167 2.334,-1.6338 1.0892,-0.4668 2.5285,-0.7974 4.3179,-0.9919 1.7894,-0.1945 4.0845,-0.2918 6.8853,-0.2918 z m 168.6342,-0.2334 c 4.5902,0 8.2468,0.0584 10.9697,0.1751 2.723,0.1167 4.8431,0.389 6.3602,0.8169 1.517,0.4278 2.6062,1.0697 3.2675,1.9255 0.6614,0.8558 1.2254,2.0228 1.6922,3.501 l 46.6797,133.85398 c 0.9336,2.800777 1.5171,5.018062 1.7504,6.651852 0.2334,1.63379 -0.0777,2.85913 -0.9335,3.676026 -0.8558,0.8168942 -2.3729,1.3225911 -4.5513,1.5170889 -2.1784,0.1945 -5.1737,0.2917478 -8.9859,0.2917478 -3.9677,0 -7.0603,-0.0583496 -9.2775,-0.1750487 -2.2173,-0.1166991 -3.9095,-0.3500973 -5.0765,-0.7001947 -1.1669,-0.3500973 -1.9838,-0.8363453 -2.4506,-1.4587413 -0.4668,-0.622396 -0.8558,-1.43929 -1.167,-2.450683 l -10.1529,-30.341797 -56.7158,0 -9.5693,29.524903 c -0.3112,1.089192 -0.7197,2.003336 -1.2254,2.742431 -0.5057,0.739095 -1.3225,1.3225909 -2.4506,1.7504891 -1.1281,0.42789599 -2.723,0.7196438 -4.7847,0.8752433 -2.0617,0.1555996 -4.7652,0.2333983 -8.1106,0.2333983 -3.5788,0 -6.3796,-0.1166991 -8.4024,-0.3500974 -2.0227,-0.2333982 -3.4231,-0.7974446 -4.2011,-1.6921393 -0.778,-0.894692 -1.0503,-2.158934 -0.8169,-3.792723 0.2334,-1.63379 0.8169,-3.812175 1.7505,-6.535155 l 46.563,-133.97068 c 0.4668,-1.3226 1.0113,-2.3924 1.6337,-3.2093 0.6225,-0.8168 1.6144,-1.4393 2.9759,-1.8671 1.3615,-0.4279 3.2481,-0.7002 5.6599,-0.8169 2.4118,-0.1167 5.6016,-0.1751 9.5693,-0.1751 z m -94.6899,0 c 2.9564,0 5.4071,0.0973 7.352,0.2918 1.945,0.1945 3.5204,0.4862 4.7264,0.8752 1.2059,0.389 2.0616,0.8753 2.5673,1.4587 0.5057,0.5835 0.7586,1.2643 0.7586,2.0423 l 0,105.02928 c 0,6.84635 -0.6419,13.01196 -1.9256,18.49683 -1.2836,5.48486 -3.462,10.15283 -6.5351,14.003904 -3.0731,3.851075 -7.0992,6.788004 -12.0784,8.8107913 -4.9791,2.0227857 -11.1253,3.0341787 -18.4385,3.0341787 -2.3339,0 -4.6485,-0.175048 -6.9436,-0.525146 -2.2951,-0.350097 -4.3956,-0.797444 -6.3017,-1.3420416 -1.9061,-0.54459504 -3.5593,-1.1280929 -4.9597,-1.7504884 -1.4004,-0.622394 -2.334,-1.186441 -2.8008,-1.692138 -0.4668,-0.505696 -0.8558,-1.030842 -1.167,-1.57544 -0.3112,-0.544597 -0.5835,-1.264241 -0.8169,-2.158936 -0.2334,-0.894694 -0.389,-2.003336 -0.4668,-3.325924 -0.0778,-1.3226 -0.1167,-2.99528 -0.1167,-5.01807 0,-2.64518 0.0583,-4.88192 0.175,-6.7102 0.1167,-1.82829 0.3113,-3.26758 0.5835,-4.31788 0.2723,-1.05029 0.6613,-1.78938 1.167,-2.21728 0.5057,-0.4279 1.1476,-0.64185 1.9256,-0.64185 0.7002,0 1.5171,0.25285 2.4507,0.75855 0.9335,0.50569 1.9838,1.03084 3.1508,1.57544 1.167,0.5446 2.5285,1.06974 4.0845,1.57544 1.556,0.50569 3.3843,0.75854 5.4849,0.75854 2.1006,0 3.9483,-0.29175 5.5432,-0.87524 1.5949,-0.5835 2.9175,-1.59489 3.9678,-3.03418 1.0502,-1.43929 1.8477,-3.36483 2.3923,-5.77661 0.5446,-2.41178 0.8169,-5.52377 0.8169,-9.33594 l 0,-103.74559 c 0,-0.778 0.2528,-1.4588 0.7585,-2.0423 0.5057,-0.5834 1.3226,-1.0697 2.4507,-1.4587 1.1281,-0.389 2.7035,-0.6807 4.7263,-0.8752 2.0228,-0.1945 4.5124,-0.2918 7.4688,-0.2918 z" /></g><path
           id="path48"
           style="fill:#660066;fill-opacity:1;fill-rule:nonzero;stroke:none"
           d="M 21.4749,103.6741 102.9336,22.21537 82.4451,1.72687 0.9863989,83.18557 21.4749,103.6741 Z" /><path
           id="path50"
           style="fill:#912092;fill-opacity:1;fill-rule:nonzero;stroke:none"
           d="M 41.79837,123.9975 123.2571,42.53876 102.7686,22.05026 21.30986,103.509 41.79837,123.9975 Z" /><path
           id="path52"
           style="fill:#bd2dbe;fill-opacity:1;fill-rule:nonzero;stroke:none"
           d="M 62.12175,144.3208 143.5804,62.86215 123.0919,42.37364 41.63325,123.8323 l 20.4885,20.4885 z" /><path
           id="path54"
           style="fill:#912092;fill-opacity:1;fill-rule:nonzero;stroke:none"
           d="M 82.44514,164.6442 163.9038,83.18553 143.4153,62.69703 61.95663,144.1557 82.44514,164.6442 Z" /><path
           id="path56"
           style="fill:#ffffff;fill-opacity:1;fill-rule:nonzero;stroke:none"
           d="m 49.92271,131.7564 27.03099,-18.7488 0.99118,-4.4075 24.83052,-14.39844 1.5672,-4.98352 39.2888,-26.39164 -36.1036,14.23154 -1.4081,5.57938 -22.91568,9.32589 -2.54597,7.41564 -24.08568,9.73715 -6.64966,22.6403 z" /><path
           id="path58"
           style="fill:#ffffff;fill-opacity:1;fill-rule:nonzero;stroke:none"
           d="m 69.81869,152.1855 27.03099,-18.7488 0.99119,-4.4075 24.83053,-14.3985 1.5672,-4.9835 39.2888,-26.39164 -36.1036,14.23153 -1.4081,5.57941 -22.9157,9.3259 -2.546,7.4156 -24.08565,9.7371 -6.64966,22.6404 z" /><path
           id="path60"
           style="fill:#ffffff;fill-opacity:1;fill-rule:nonzero;stroke:none"
           d="M 29.65027,111.6288 56.68126,92.88009 57.67244,88.47257 82.50299,74.0741 84.07018,69.09057 123.3589,42.69894 87.25534,56.93048 l -1.40806,5.57938 -22.9157,9.32588 -2.54597,7.41565 -24.08568,9.73711 -6.64966,22.6403 z" /><path
           id="path62"
           style="fill:#ffffff;fill-opacity:1;fill-rule:nonzero;stroke:none"
           d="M 8.967747,91.15679 35.99874,72.40804 36.98992,68.00053 61.82047,53.60205 63.38766,48.61853 102.6764,22.22689 66.57282,36.45843 65.16476,42.03781 42.24906,51.3637 39.70309,58.77934 15.61741,68.51645 8.967747,91.15679 Z" /><path
           id="path64"
           style="fill:#ffffff;fill-opacity:0.50199998;fill-rule:nonzero;stroke:none"
           d="M 122.7154,1.550827 41.25665,83.00953 122.7154,164.4682 204.1741,83.00953 122.7154,1.550827 Z" /><g
           transform="matrix(-5.56777e-5,5.56777e-5,5.56777e-5,5.56777e-5,122.7154,1.550827)"
           id="g66"><path
             id="path68"
             style="fill:none;stroke:#000000;stroke-width:25400;stroke-linecap:round;stroke-linejoin:round;stroke-miterlimit:10;stroke-dasharray:none;stroke-opacity:1"
             d="m 0,0 1463040,0 0,1463040 L 0,1463040 0,0 Z" /></g><g
           transform="matrix(-5.56777e-5,5.56777e-5,-5.56777e-5,-5.56777e-5,132.9102,154.6255)"
           id="g70"><path
             id="path72"
             style="fill:none;stroke:#000000;stroke-width:25400;stroke-linecap:butt;stroke-linejoin:miter;stroke-miterlimit:8;stroke-dasharray:none;stroke-opacity:1"
             d="M 0,0 1,1463040" /></g><g
           transform="matrix(-5.56777e-5,5.56777e-5,-5.56777e-5,-5.56777e-5,143.1287,144.407)"
           id="g74"><path
             id="path76"
             style="fill:none;stroke:#000000;stroke-width:25400;stroke-linecap:butt;stroke-linejoin:miter;stroke-miterlimit:8;stroke-dasharray:none;stroke-opacity:1"
             d="M 0,0 1,1463040" /></g><g
           transform="matrix(-5.56777e-5,5.56777e-5,-5.56777e-5,-5.56777e-5,153.3472,134.1886)"
           id="g78"><path
             id="path80"
             style="fill:none;stroke:#000000;stroke-width:25400;stroke-linecap:butt;stroke-linejoin:miter;stroke-miterlimit:8;stroke-dasharray:none;stroke-opacity:1"
             d="M 0,0 1,1463040" /></g><g
           transform="matrix(-5.56777e-5,5.56777e-5,-5.56777e-5,-5.56777e-5,163.5656,123.9701)"
           id="g82"><path
             id="path84"
             style="fill:none;stroke:#000000;stroke-width:25400;stroke-linecap:butt;stroke-linejoin:miter;stroke-miterlimit:8;stroke-dasharray:none;stroke-opacity:1"
             d="M 0,0 1,1463040" /></g><g
           transform="matrix(-5.56777e-5,5.56777e-5,-5.56777e-5,-5.56777e-5,173.7841,113.7516)"
           id="g86"><path
             id="path88"
             style="fill:none;stroke:#000000;stroke-width:25400;stroke-linecap:butt;stroke-linejoin:miter;stroke-miterlimit:8;stroke-dasharray:none;stroke-opacity:1"
             d="M 0,0 1,1463040" /></g><g
           transform="matrix(-5.56777e-5,5.56777e-5,-5.56777e-5,-5.56777e-5,194.2211,93.31463)"
           id="g90"><path
             id="path92"
             style="fill:none;stroke:#000000;stroke-width:25400;stroke-linecap:butt;stroke-linejoin:miter;stroke-miterlimit:8;stroke-dasharray:none;stroke-opacity:1"
             d="M 0,0 1,1463040" /></g><g
           transform="matrix(-5.56777e-5,5.56777e-5,-5.56777e-5,-5.56777e-5,184.0026,103.5331)"
           id="g94"><path
             id="path96"
             style="fill:none;stroke:#000000;stroke-width:25400;stroke-linecap:butt;stroke-linejoin:miter;stroke-miterlimit:8;stroke-dasharray:none;stroke-opacity:1"
             d="M 0,0 1,1463040" /></g><g
           transform="matrix(5.56777e-5,5.56777e-5,-5.56777e-5,5.56777e-5,194.2116,73.0471)"
           id="g98"><path
             id="path100"
             style="fill:none;stroke:#000000;stroke-width:25400;stroke-linecap:butt;stroke-linejoin:miter;stroke-miterlimit:8;stroke-dasharray:none;stroke-opacity:1"
             d="M 0,0 1,1463040" /></g><g
           transform="matrix(5.56777e-5,5.56777e-5,-5.56777e-5,5.56777e-5,184.0483,62.8838)"
           id="g102"><path
             id="path104"
             style="fill:none;stroke:#000000;stroke-width:25400;stroke-linecap:butt;stroke-linejoin:miter;stroke-miterlimit:8;stroke-dasharray:none;stroke-opacity:1"
             d="M 0,0 1,1463040" /></g><g
           transform="matrix(5.56777e-5,5.56777e-5,-5.56777e-5,5.56777e-5,173.8849,52.72041)"
           id="g106"><path
             id="path108"
             style="fill:none;stroke:#000000;stroke-width:25400;stroke-linecap:butt;stroke-linejoin:miter;stroke-miterlimit:8;stroke-dasharray:none;stroke-opacity:1"
             d="M 0,0 1,1463040" /></g><g
           transform="matrix(5.56777e-5,5.56777e-5,-5.56777e-5,5.56777e-5,163.7216,42.55711)"
           id="g110"><path
             id="path112"
             style="fill:none;stroke:#000000;stroke-width:25400;stroke-linecap:butt;stroke-linejoin:miter;stroke-miterlimit:8;stroke-dasharray:none;stroke-opacity:1"
             d="M 0,0 1,1463040" /></g><g
           transform="matrix(5.56777e-5,5.56777e-5,-5.56777e-5,5.56777e-5,153.5582,32.39372)"
           id="g114"><path
             id="path116"
             style="fill:none;stroke:#000000;stroke-width:25400;stroke-linecap:butt;stroke-linejoin:miter;stroke-miterlimit:8;stroke-dasharray:none;stroke-opacity:1"
             d="M 0,0 1,1463040" /></g><g
           transform="matrix(5.56777e-5,5.56777e-5,-5.56777e-5,5.56777e-5,133.2316,12.06703)"
           id="g118"><path
             id="path120"
             style="fill:none;stroke:#000000;stroke-width:25400;stroke-linecap:butt;stroke-linejoin:miter;stroke-miterlimit:8;stroke-dasharray:none;stroke-opacity:1"
             d="M 0,0 1,1463040" /></g><g
           transform="matrix(5.56777e-5,5.56777e-5,-5.56777e-5,5.56777e-5,143.3949,22.23033)"
           id="g122"><path
             id="path124"
             style="fill:none;stroke:#000000;stroke-width:25400;stroke-linecap:butt;stroke-linejoin:miter;stroke-miterlimit:8;stroke-dasharray:none;stroke-opacity:1"
             d="M 0,0 1,1463040" /></g><path
           id="path126"
           style="fill:#ffffff;fill-opacity:1;fill-rule:nonzero;stroke:none"
           d="m 387.7667,159 6.0944,-41.3778 -2.5139,-4.8796 7.6764,-35.45691 -2.5139,-5.92083 9.4903,-59.36487 -16.0944,45.49514 3.0694,6.31556 -10,29.14139 3.5833,9.00372 L 376,132.5264 387.7667,159 Z" /></g></g></g></svg>