<?xml version="1.0" encoding="UTF-8" standalone="no"?>
<svg
   xmlns:dc="http://purl.org/dc/elements/1.1/"
   xmlns:cc="http://creativecommons.org/ns#"
   xmlns:rdf="http://www.w3.org/1999/02/22-rdf-syntax-ns#"
   xmlns:svg="http://www.w3.org/2000/svg"
   xmlns="http://www.w3.org/2000/svg"
   viewBox="0 0 765 990"
   height="990"
   width="765"
   xml:space="preserve"
   version="1.1"
   id="svg2"><metadata
     id="metadata8"><rdf:RDF><cc:Work
         rdf:about=""><dc:format>image/svg+xml</dc:format><dc:type
           rdf:resource="http://purl.org/dc/dcmitype/StillImage" /></cc:Work></rdf:RDF></metadata><defs
     id="defs6"><clipPath
       id="clipPath18"
       clipPathUnits="userSpaceOnUse"><path
         id="path20"
         d="m 224,792 0,-792 164,0 0,792 -164,0 z" /></clipPath><clipPath
       id="clipPath24"
       clipPathUnits="userSpaceOnUse"><path
         id="path26"
         d="m 224,792 0,-792 164.16,0 0,792 -164.16,0 z" /></clipPath><clipPath
       id="clipPath30"
       clipPathUnits="userSpaceOnUse"><path
         id="path32"
         d="M 0,0 612,0 612,792 0,792 0,0 Z" /></clipPath></defs><g
     transform="matrix(1.25,0,0,-1.25,0,990)"
     id="g10"><g
       id="g12" /><g
       id="g14"><g
         clip-path="url(#clipPath18)"
         id="g16"><g
           clip-path="url(#clipPath24)"
           id="g22"><g
             clip-path="url(#clipPath30)"
             id="g28"><path
               id="path34"
               style="fill:#ffffff;fill-opacity:0;fill-rule:nonzero;stroke:none"
               d="m 388.16,792 0,-792 -164.16,0 0,792 164.16,0 z" /><path
               id="path36"
               style="fill:#ffffff;fill-opacity:1;fill-rule:nonzero;stroke:none"
               d="m 225.1554,673.5754 20.128,20.1279 59.0029,-59.0029 58.0725,58.0724 19.1974,-19.1974 -78.2004,-78.2004 -78.2004,78.2004 z" /><g
               transform="matrix(5.345059e-5,5.345059e-5,5.345059e-5,-5.345059e-5,225.1554,673.5754)"
               id="g38"><path
                 id="path40"
                 style="fill:none;stroke:#000000;stroke-width:12700;stroke-linecap:round;stroke-linejoin:round;stroke-miterlimit:10;stroke-dasharray:none;stroke-opacity:1"
                 d="m 0,0 376571.2,0 0,1103878 1086468.8,0 0,359162 L 0,1463040 0,0 Z" /></g><path
               id="path42"
               style="fill:#000000;fill-opacity:1;fill-rule:nonzero;stroke:none"
               d="m 345.7208,104.7226 -61.6171,20.5016 0,-41.11543 61.6171,20.50173 0,0.1121 z m 28.1198,161.4408 c 0,-2.5394 -0.0933,-4.668 -0.28,-6.3859 -0.1867,-1.7178 -0.5041,-3.0435 -0.9522,-3.9771 -0.4481,-0.9336 -0.971,-1.587 -1.5685,-1.9606 -0.5975,-0.3734 -1.2697,-0.56 -2.0165,-0.56 l -130.2924,0 c -1.7178,0 -3.2489,0.2986 -4.5933,0.8961 -1.3444,0.5976 -2.4647,1.4005 -3.3609,2.4088 -0.8963,1.0083 -1.5498,2.2033 -1.9606,3.585 -0.4108,1.3817 -0.6161,2.7821 -0.6161,4.2011 l 0,12.5475 c 0,2.6141 0.2614,4.8734 0.7842,6.7779 0.5228,1.9046 1.4751,3.6597 2.8568,5.2655 1.3817,1.6057 3.2489,3.1555 5.6015,4.6493 2.3527,1.4937 5.3962,3.1742 9.1306,5.0414 l 67.7789,36.0741 c 4.0331,2.0912 8.3836,4.2197 13.0516,6.3857 4.668,2.1659 9.2053,4.1078 13.6119,5.8257 l 0,0.224 c -5.3776,-0.2987 -10.7364,-0.5228 -16.0766,-0.6722 -5.3401,-0.1493 -10.8483,-0.224 -16.5246,-0.224 l -75.8451,0 c -0.7469,0 -1.4191,0.2054 -2.0166,0.6162 -0.5975,0.4107 -1.1016,1.1202 -1.5124,2.1285 -0.4108,1.0083 -0.7282,2.3713 -0.9523,4.0891 -0.224,1.7178 -0.3361,3.9211 -0.3361,6.6099 0,2.6141 0.1121,4.78 0.3361,6.4979 0.2241,1.7177 0.5415,3.0621 0.9523,4.033 0.4108,0.971 0.9149,1.6432 1.5124,2.0166 0.5975,0.3734 1.2697,0.5602 2.0166,0.5602 l 130.2923,0 c 3.5103,0 6.143,-1.027 7.8982,-3.0809 1.7552,-2.0539 2.6327,-4.5746 2.6327,-7.5621 l 0,-15.7964 c 0,-2.8381 -0.2427,-5.2281 -0.7281,-7.17 -0.4855,-1.9418 -1.2884,-3.6784 -2.4087,-5.2095 -1.1203,-1.531 -2.6701,-2.9688 -4.6493,-4.3132 -1.9792,-1.3444 -4.4253,-2.726 -7.338,-4.1452 L 305.2776,297.308 c -3.2116,-1.6432 -6.3671,-3.2676 -9.4667,-4.8734 -3.0995,-1.6057 -6.199,-3.1555 -9.2986,-4.6493 -3.0995,-1.4937 -6.143,-2.95 -9.1305,-4.3692 -2.9875,-1.4191 -5.975,-2.8007 -8.9625,-4.1451 l 0,-0.112 c 5.2281,0.224 10.6803,0.392 16.3565,0.5041 5.6763,0.112 11.0911,0.1681 16.2446,0.1681 l 68.003,0 c 0.7468,0 1.419,-0.2241 2.0165,-0.6722 0.5975,-0.4482 1.1204,-1.195 1.5685,-2.2407 0.4481,-1.0456 0.7655,-2.4273 0.9522,-4.1451 0.1867,-1.7179 0.28,-3.9212 0.28,-6.6098 z m 0,206.3999 c 0,-2.5393 -0.0933,-4.6679 -0.28,-6.3858 -0.1867,-1.7178 -0.5041,-3.0435 -0.9522,-3.9771 -0.4481,-0.9336 -0.971,-1.5871 -1.5685,-1.9606 -0.5975,-0.3734 -1.2697,-0.5601 -2.0165,-0.5601 l -130.2924,0 c -1.7178,0 -3.2489,0.2987 -4.5933,0.8962 -1.3444,0.5976 -2.4647,1.4005 -3.3609,2.4088 -0.8963,1.0083 -1.5498,2.2032 -1.9606,3.5849 -0.4108,1.3818 -0.6161,2.7822 -0.6161,4.2012 l 0,12.5475 c 0,2.6141 0.2614,4.8734 0.7842,6.7779 0.5228,1.9046 1.4751,3.6597 2.8568,5.2654 1.3817,1.6058 3.2489,3.1556 5.6015,4.6494 2.3527,1.4937 5.3962,3.1742 9.1306,5.0414 l 67.7789,36.0741 c 4.0331,2.0912 8.3836,4.2197 13.0516,6.3857 4.668,2.1659 9.2053,4.1078 13.6119,5.8257 l 0,0.224 c -5.3776,-0.2987 -10.7364,-0.5228 -16.0766,-0.6722 -5.3401,-0.1493 -10.8483,-0.224 -16.5246,-0.224 l -75.8451,0 c -0.7469,0 -1.4191,0.2053 -2.0166,0.6161 -0.5975,0.4108 -1.1016,1.1203 -1.5124,2.1286 -0.4108,1.0083 -0.7282,2.3714 -0.9523,4.0891 -0.224,1.7178 -0.3361,3.9211 -0.3361,6.6099 0,2.6141 0.1121,4.78 0.3361,6.4979 0.2241,1.7177 0.5415,3.0621 0.9523,4.033 0.4108,0.971 0.9149,1.6432 1.5124,2.0166 0.5975,0.3734 1.2697,0.5602 2.0166,0.5602 l 130.2923,0 c 3.5103,0 6.143,-1.027 7.8982,-3.0809 1.7552,-2.0539 2.6327,-4.5746 2.6327,-7.5621 l 0,-15.7964 c 0,-2.8381 -0.2427,-5.2282 -0.7281,-7.1701 -0.4855,-1.9417 -1.2884,-3.6783 -2.4087,-5.2094 -1.1203,-1.531 -2.6701,-2.9688 -4.6493,-4.3132 -1.9792,-1.3444 -4.4253,-2.7261 -7.338,-4.1452 L 305.2776,503.708 c -3.2116,-1.6432 -6.3671,-3.2676 -9.4667,-4.8734 -3.0995,-1.6058 -6.199,-3.1555 -9.2986,-4.6493 -3.0995,-1.4937 -6.143,-2.9501 -9.1305,-4.3692 -2.9875,-1.4191 -5.975,-2.8007 -8.9625,-4.1451 l 0,-0.112 c 5.2281,0.224 10.6803,0.392 16.3565,0.5041 5.6763,0.112 11.0911,0.1681 16.2446,0.1681 l 68.003,0 c 0.7468,0 1.419,-0.2241 2.0165,-0.6722 0.5975,-0.4482 1.1204,-1.195 1.5685,-2.2407 0.4481,-1.0456 0.7655,-2.4273 0.9522,-4.1451 0.1867,-1.7179 0.28,-3.9212 0.28,-6.6099 z m 0.2241,-368.2889 c 0,-4.40656 -0.056,-7.9169 -0.168,-10.53088 -0.112,-2.61408 -0.3734,-4.64938 -0.7842,-6.1057 -0.4108,-1.45641 -1.0269,-2.50204 -1.8485,-3.13689 -0.8216,-0.63485 -1.9419,-1.17639 -3.361,-1.62451 L 239.4032,38.0639 c -2.6888,-0.89616 -4.8174,-1.45632 -6.3858,-1.68038 -1.5684,-0.22406 -2.7448,0.07459 -3.529,0.89626 -0.7842,0.82156 -1.2697,2.27798 -1.4564,4.36915 -0.1867,2.09126 -0.2801,4.96675 -0.2801,8.62646 0,3.80899 0.056,6.77789 0.1681,8.9065 0.112,2.12851 0.3361,3.75302 0.6722,4.87334 0.3361,1.12032 0.8029,1.90455 1.4004,2.35267 0.5975,0.44804 1.3817,0.82148 2.3526,1.12023 l 29.1281,9.74678 0,54.44719 -28.3439,9.1865 c -1.0456,0.2988 -1.9232,0.6909 -2.6327,1.1764 -0.7095,0.4855 -1.2697,1.2697 -1.6805,2.3527 -0.4108,1.0828 -0.6908,2.6139 -0.8402,4.5932 -0.1494,1.9792 -0.2241,4.5747 -0.2241,7.7862 0,3.4356 0.1121,6.1244 0.3361,8.0663 0.2241,1.9418 0.7656,3.2862 1.6245,4.033 0.8589,0.7469 2.0726,1.0083 3.641,0.7842 1.5684,-0.224 3.6597,-0.7842 6.2737,-1.6804 l 128.6119,-44.7004 c 1.2697,-0.4482 2.2966,-0.971 3.0809,-1.5685 0.7842,-0.5975 1.3817,-1.5498 1.7925,-2.8568 0.4108,-1.307 0.6722,-3.1182 0.7842,-5.4335 0.112,-2.3154 0.168,-5.3775 0.168,-9.1866 z m 0,90.9023 c 0,-2.8381 -0.0933,-5.1907 -0.28,-7.0579 -0.1867,-1.8672 -0.4668,-3.3796 -0.8402,-4.5372 -0.3736,-1.1577 -0.8403,-1.9793 -1.4005,-2.4647 -0.5601,-0.4855 -1.2136,-0.7283 -1.9605,-0.7283 l -100.8281,0 c -6.5725,0 -12.4915,0.6162 -17.757,1.8486 -5.2654,1.2323 -9.7467,3.3235 -13.4437,6.2737 -3.6971,2.9502 -6.5165,6.8152 -8.4584,11.5952 -1.9419,4.78 -2.9128,10.6803 -2.9128,17.701 0,2.2406 0.168,4.4626 0.5041,6.6659 0.3361,2.2032 0.7656,4.2197 1.2884,6.0496 0.5228,1.8298 1.083,3.417 1.6805,4.7613 0.5975,1.3444 1.1389,2.2406 1.6244,2.6888 0.4855,0.4481 0.9896,0.8215 1.5124,1.1203 0.5229,0.2987 1.2137,0.5602 2.0726,0.7842 0.8589,0.2241 1.9232,0.3735 3.1929,0.4481 1.2697,0.0747 2.8755,0.1121 4.8174,0.1121 2.5393,0 4.6866,-0.056 6.4417,-0.168 1.7552,-0.1121 3.1369,-0.2988 4.1452,-0.5602 1.0083,-0.2614 1.7178,-0.6348 2.1286,-1.1203 0.4108,-0.4855 0.6162,-1.1017 0.6162,-1.8486 0,-0.6722 -0.2428,-1.4564 -0.7282,-2.3526 -0.4855,-0.8962 -0.9896,-1.9045 -1.5125,-3.0248 -0.5228,-1.1203 -1.0269,-2.4274 -1.5124,-3.9211 -0.4854,-1.4938 -0.7282,-3.249 -0.7282,-5.2655 0,-2.0165 0.2801,-3.7904 0.8403,-5.3215 0.5601,-1.5311 1.531,-2.8008 2.9128,-3.809 1.3817,-1.0083 3.2302,-1.7739 5.5455,-2.2967 2.3153,-0.5228 5.3028,-0.7842 8.9625,-0.7842 l 99.5958,0 c 0.7469,0 1.4004,-0.2427 1.9605,-0.7282 0.5602,-0.4855 1.0269,-1.2697 1.4005,-2.3527 0.3734,-1.0829 0.6535,-2.5953 0.8402,-4.5372 0.1867,-1.9419 0.28,-4.3319 0.28,-7.1701 z m 0,221.4122 c 0,-2.9128 -0.112,-5.3028 -0.3361,-7.1699 -0.2241,-1.8672 -0.5227,-3.361 -0.8962,-4.4813 -0.3735,-1.1203 -0.8589,-1.9232 -1.4564,-2.4086 -0.5975,-0.4856 -1.2697,-0.7283 -2.0165,-0.7283 l -136.9023,0 c -0.7468,0 -1.419,0.2427 -2.0165,0.7283 -0.5975,0.4854 -1.083,1.2883 -1.4564,2.4086 -0.3735,1.1203 -0.6722,2.6141 -0.8963,4.4813 -0.224,1.8671 -0.3361,4.2571 -0.3361,7.1699 0,2.8382 0.1121,5.2095 0.3361,7.114 0.2241,1.9046 0.5228,3.4169 0.8963,4.5373 0.3734,1.1203 0.8589,1.9232 1.4564,2.4087 0.5975,0.4855 1.2697,0.7282 2.0165,0.7282 l 136.9023,0 c 0.7468,0 1.419,-0.2427 2.0165,-0.7282 0.5975,-0.4855 1.0829,-1.307 1.4564,-2.4647 0.3735,-1.1577 0.6721,-2.6701 0.8962,-4.5373 0.2241,-1.8672 0.3361,-4.2198 0.3361,-7.058 z" /><g
               transform="matrix(0,-0.96,-0.96,0,228.4241,595.0135)"
               id="g44"><path
                 id="path46"
                 style="fill:none;stroke:#000000;stroke-width:1;stroke-linecap:butt;stroke-linejoin:round;stroke-miterlimit:10;stroke-dasharray:none;stroke-opacity:1"
                 d="m 510.7197,-122.1841 -21.3559,64.18459 42.8286,0 -21.356,-64.18459 -0.1167,0 z m -168.1675,-29.2915 c 2.6452,0 4.8625,0.0973 6.6519,0.2918 1.7894,0.1945 3.1703,0.5251 4.1428,0.9919 0.9725,0.4668 1.6533,1.0114 2.0423,1.6338 0.389,0.6224 0.5835,1.3226 0.5835,2.1006 l 0,135.72117 c 0,1.78939 -0.3112,3.384279 -0.9336,4.784671 -0.6224,1.400389 -1.4588,2.567383 -2.5091,3.500975 -1.0503,0.933593 -2.295,1.6143389 -3.7343,2.0422371 -1.4393,0.42789599 -2.8981,0.6418451 -4.3763,0.6418451 l -13.0703,0 c -2.7229,0 -5.0764,-0.27229867 -7.0603,-0.8168938 -1.9839,-0.5445974 -3.8122,-1.5365394 -5.4848,-2.9758294 -1.6727,-1.439292 -3.2871,-3.384279 -4.8431,-5.834962 -1.5559,-2.450683 -3.3064,-5.621013 -5.2514,-9.510983 L 271.1323,-89.5083 c -2.1784,-4.20117 -4.3956,-8.73299 -6.6518,-13.5955 -2.2562,-4.8624 -4.279,-9.5888 -6.0684,-14.1789 l -0.2334,0 c 0.3112,5.6015 0.5446,11.1837 0.7002,16.7463 0.1556,5.56269 0.2334,11.30039 0.2334,17.21316 l 0,79.005368 c 0,0.777996 -0.214,1.478191 -0.6418,2.100587 -0.4279,0.622396 -1.167,1.147542 -2.2173,1.5754399 -1.0503,0.427896 -2.4701,0.7585442 -4.2595,0.9919424 -1.7894,0.2333983 -4.0845,0.3500974 -6.8853,0.3500974 -2.723,0 -4.9792,-0.1166991 -6.7686,-0.3500974 -1.7893,-0.2333982 -3.1897,-0.5640464 -4.2011,-0.9919424 -1.0114,-0.4278979 -1.7116,-0.9530439 -2.1006,-1.5754399 -0.389,-0.622396 -0.5835,-1.322591 -0.5835,-2.100587 l 0,-135.721228 c 0,-3.6565 1.0698,-6.399 3.2092,-8.2273 2.1395,-1.8282 4.7652,-2.7424 7.8772,-2.7424 l 16.4546,0 c 2.9564,0 5.446,0.2528 7.4688,0.7586 2.0228,0.5057 3.8316,1.342 5.4265,2.509 1.5948,1.167 3.0925,2.7813 4.4929,4.843 1.4004,2.0617 2.8396,4.6096 4.3179,7.6438 l 29.4082,55.19874 c 1.7116,3.34538 3.4037,6.6324 5.0764,9.86108 1.6726,3.22868 3.287,6.45736 4.843,9.68604 1.556,3.22867 3.0731,6.399 4.5513,9.51098 1.4782,3.11198 2.9174,6.22396 4.3178,9.33594 l 0.1167,0 c -0.2334,-5.44596 -0.4084,-11.12533 -0.5251,-17.03809 -0.1167,-5.91276 -0.1751,-11.55322 -0.1751,-16.92138 l 0,-70.83641 c 0,-0.778 0.2334,-1.4782 0.7002,-2.1006 0.4668,-0.6224 1.2448,-1.167 2.334,-1.6338 1.0892,-0.4668 2.5285,-0.7974 4.3179,-0.9919 1.7894,-0.1945 4.0845,-0.2918 6.8852,-0.2918 z m -214.9999,0 c 2.6451,0 4.8624,0.0973 6.6518,0.2918 1.7894,0.1945 3.1703,0.5251 4.1428,0.9919 0.9725,0.4668 1.6533,1.0114 2.0423,1.6338 0.389,0.6224 0.5835,1.3226 0.5835,2.1006 l 0,135.72117 c 0,1.78939 -0.3112,3.384279 -0.9336,4.784671 -0.6224,1.400389 -1.4588,2.567383 -2.5091,3.500975 -1.0503,0.933593 -2.295,1.6143389 -3.7343,2.0422371 -1.4393,0.42789599 -2.8981,0.6418451 -4.3763,0.6418451 l -13.0703,0 c -2.7229,0 -5.0764,-0.27229867 -7.0603,-0.8168938 -1.9839,-0.5445974 -3.8122,-1.5365394 -5.4848,-2.9758294 -1.6727,-1.439292 -3.2871,-3.384279 -4.84305,-5.834962 -1.55599,-2.450683 -3.30648,-5.621013 -5.25146,-9.510983 L 56.13234,-89.5083 c -2.17839,-4.20117 -4.39567,-8.73299 -6.65186,-13.5955 -2.25619,-4.8624 -4.27897,-9.5888 -6.06836,-14.1789 l -0.2334,0 c 0.31119,5.6015 0.54459,11.1837 0.70019,16.7463 0.15561,5.56269 0.23341,11.30039 0.23341,17.21316 l 0,79.005368 c 0,0.777996 -0.21395,1.478191 -0.64185,2.100587 -0.42789,0.622396 -1.16699,1.147542 -2.21728,1.5754399 -1.05031,0.427896 -2.47014,0.7585442 -4.25953,0.9919424 -1.78939,0.2333983 -4.08447,0.3500974 -6.88525,0.3500974 -2.72298,0 -4.97917,-0.1166991 -6.76856,-0.3500974 C 21.55046,0.1166991 20.15007,-0.2139491 19.13868,-0.6418451 18.12729,-1.069743 17.42709,-1.594889 17.0381,-2.217285 16.6491,-2.839681 16.4546,-3.539876 16.4546,-4.317872 l 0,-135.721228 c 0,-3.6565 1.06974,-6.399 3.20922,-8.2273 2.13949,-1.8282 4.76522,-2.7424 7.87721,-2.7424 l 16.45458,0 c 2.95639,0 5.44596,0.2528 7.46875,0.7586 2.0228,0.5057 3.83163,1.342 5.42651,2.509 1.59489,1.167 3.09254,2.7813 4.49293,4.843 1.40039,2.0617 2.83967,4.6096 4.31787,7.6438 l 29.40821,55.19874 c 1.71158,3.34538 3.40372,6.6324 5.07642,9.86108 1.6727,3.22868 3.287,6.45736 4.843,9.68604 1.556,3.22867 3.0731,6.399 4.5513,9.51098 1.4782,3.11198 2.9175,6.22396 4.3178,9.33594 l 0.1167,0 c -0.2334,-5.44596 -0.4084,-11.12533 -0.5251,-17.03809 -0.1167,-5.91276 -0.1751,-11.55322 -0.1751,-16.92138 l 0,-70.83641 c 0,-0.778 0.2334,-1.4782 0.7002,-2.1006 0.4668,-0.6224 1.2448,-1.167 2.334,-1.6338 1.0892,-0.4668 2.5285,-0.7974 4.3179,-0.9919 1.7894,-0.1945 4.0845,-0.2918 6.8853,-0.2918 z m 383.6342,-0.2334 c 4.5902,0 8.2468,0.0584 10.9697,0.1751 2.723,0.1167 4.8431,0.389 6.3602,0.8169 1.517,0.4278 2.6062,1.0697 3.2675,1.9255 0.6614,0.8558 1.2254,2.0228 1.6922,3.501 l 46.6797,133.85398 c 0.9336,2.800777 1.5171,5.018062 1.7504,6.651852 0.2334,1.63379 -0.0777,2.85913 -0.9335,3.676026 -0.8559,0.8168942 -2.373,1.3225911 -4.5513,1.5170889 -2.1784,0.1945 -5.1737,0.2917478 -8.9859,0.2917478 -3.9677,0 -7.0603,-0.0583496 -9.2775,-0.1750487 -2.2173,-0.1166991 -3.9095,-0.3500973 -5.0765,-0.7001947 -1.1669,-0.3500973 -1.9838,-0.8363453 -2.4506,-1.4587413 -0.4668,-0.622396 -0.8558,-1.43929 -1.167,-2.450683 l -10.1529,-30.341797 -56.7158,0 -9.5693,29.524903 c -0.3112,1.089192 -0.7197,2.003336 -1.2254,2.742431 -0.5057,0.739095 -1.3226,1.3225909 -2.4506,1.7504891 -1.1281,0.42789599 -2.723,0.7196438 -4.7847,0.8752433 -2.0617,0.1555996 -4.7652,0.2333983 -8.1106,0.2333983 -3.5788,0 -6.3796,-0.1166991 -8.4024,-0.3500974 -2.0228,-0.2333982 -3.4231,-0.7974446 -4.2011,-1.6921393 -0.778,-0.894692 -1.0503,-2.158934 -0.8169,-3.792723 0.2334,-1.63379 0.8169,-3.812175 1.7505,-6.535155 l 46.563,-133.97068 c 0.4668,-1.3226 1.0113,-2.3924 1.6337,-3.2093 0.6225,-0.8168 1.6144,-1.4393 2.9759,-1.8671 1.3615,-0.4279 3.2481,-0.7002 5.6599,-0.8169 2.4118,-0.1167 5.6016,-0.1751 9.5693,-0.1751 z m -94.6899,0 c 2.9564,0 5.4071,0.0973 7.352,0.2918 1.945,0.1945 3.5204,0.4862 4.7264,0.8752 1.2059,0.389 2.0616,0.8753 2.5673,1.4587 0.5057,0.5835 0.7586,1.2643 0.7586,2.0423 l 0,105.02928 c 0,6.84635 -0.6419,13.01196 -1.9256,18.49683 -1.2836,5.48486 -3.462,10.15283 -6.5351,14.003904 -3.0731,3.851075 -7.0992,6.788004 -12.0784,8.8107913 -4.9791,2.0227857 -11.1253,3.0341787 -18.4385,3.0341787 -2.3339,0 -4.6485,-0.175048 -6.9436,-0.525146 -2.295,-0.350097 -4.3956,-0.797444 -6.3017,-1.3420416 -1.9061,-0.54459504 -3.5593,-1.1280929 -4.9597,-1.7504884 -1.4004,-0.622394 -2.334,-1.186441 -2.8008,-1.692138 -0.4668,-0.505696 -0.8558,-1.030842 -1.167,-1.57544 -0.3112,-0.544597 -0.5835,-1.264241 -0.8169,-2.158936 -0.2334,-0.894694 -0.389,-2.003336 -0.4668,-3.325924 -0.0778,-1.3226 -0.1167,-2.99528 -0.1167,-5.01807 0,-2.64518 0.0583,-4.88192 0.175,-6.7102 0.1167,-1.82829 0.3112,-3.26758 0.5835,-4.31788 0.2724,-1.05029 0.6613,-1.78938 1.167,-2.21728 0.5057,-0.4279 1.1476,-0.64185 1.9256,-0.64185 0.7002,0 1.5171,0.25285 2.4507,0.75855 0.9335,0.50569 1.9838,1.03084 3.1508,1.57544 1.167,0.5446 2.5285,1.06974 4.0845,1.57544 1.556,0.50569 3.3843,0.75854 5.4849,0.75854 2.1006,0 3.9483,-0.29175 5.5432,-0.87524 1.5949,-0.5835 2.9175,-1.59489 3.9678,-3.03418 1.0502,-1.43929 1.8477,-3.36483 2.3923,-5.77661 0.5446,-2.41178 0.8169,-5.52377 0.8169,-9.33594 l 0,-103.74559 c 0,-0.778 0.2528,-1.4588 0.7585,-2.0423 0.5057,-0.5834 1.3226,-1.0697 2.4507,-1.4587 1.1281,-0.389 2.7035,-0.6807 4.7263,-0.8752 2.0228,-0.1945 4.5124,-0.2918 7.4688,-0.2918 z m -230.6377,0 c 3.0342,0 5.5238,0.1167 7.4688,0.3501 1.9449,0.2334 3.5009,0.5446 4.6679,0.9336 1.167,0.389 2.0033,0.8947 2.5091,1.5171 0.5057,0.6224 0.7585,1.3226 0.7585,2.1006 l 0,142.606428 c 0,0.777995 -0.2528,1.47819 -0.7585,2.100586 -0.5058,0.622396 -1.3421,1.1280926 -2.5091,1.5170904 -1.167,0.3889979 -2.723,0.7001947 -4.6679,0.9335929 -1.945,0.2333983 -4.4346,0.3500974 -7.4688,0.3500974 -2.9564,0 -5.4265,-0.1166991 -7.4104,-0.3500974 -1.9839,-0.2333982 -3.5593,-0.544595 -4.7263,-0.9335929 -1.167,-0.3889978 -2.0034,-0.8946944 -2.5091,-1.5170904 -0.5056,-0.622396 -0.7585,-1.322591 -0.7585,-2.100586 l 0,-142.606428 c 0,-0.778 0.2529,-1.4782 0.7585,-2.1006 0.5057,-0.6224 1.3615,-1.1281 2.5674,-1.5171 1.2059,-0.389 2.7814,-0.7002 4.7264,-0.9336 1.9449,-0.2334 4.3956,-0.3501 7.352,-0.3501 z" /></g><path
               id="path48"
               style="fill:#ffffff;fill-opacity:1;fill-rule:nonzero;stroke:none"
               d="m 376.64,476.1771 -39.7227,-5.4607 -4.6844,2.2525 -34.0386,-6.8781 -5.684,2.2525 -56.9903,-8.5033 43.6753,14.4206 6.063,-2.7502 27.9757,8.96 8.6436,-3.2106 29.3477,9.4602 25.4147,-10.5429 z" /><path
               id="path50"
               style="fill:#660066;fill-opacity:1;fill-rule:nonzero;stroke:none"
               d="m 323.5271,771.3841 -78.2003,-78.2004 -19.669,19.669 78.2003,78.2004 19.669,-19.669 z" /><path
               id="path52"
               style="fill:#912092;fill-opacity:1;fill-rule:nonzero;stroke:none"
               d="m 343.0376,751.8736 -78.2004,-78.2004 -19.669,19.6689 78.2004,78.2004 19.669,-19.6689 z" /><path
               id="path54"
               style="fill:#bd2dbe;fill-opacity:1;fill-rule:nonzero;stroke:none"
               d="m 362.548,732.3631 -78.2003,-78.2003 -19.669,19.669 78.2003,78.2003 19.669,-19.669 z" /><path
               id="path56"
               style="fill:#912092;fill-opacity:1;fill-rule:nonzero;stroke:none"
               d="m 382.0584,712.8527 -78.2003,-78.2003 -19.669,19.6689 78.2004,78.2003 19.6689,-19.6689 z" /><path
               id="path58"
               style="fill:#ffffff;fill-opacity:1;fill-rule:nonzero;stroke:none"
               d="m 350.4861,744.0742 -17.9988,-25.9498 -4.2312,-0.9515 -13.8225,-23.8373 -4.7842,-1.5045 -25.336,-37.7172 13.6623,34.6594 5.3562,1.3518 8.9529,21.999 7.119,2.4442 9.3477,23.1222 21.7346,6.3837 z" /><path
               id="path60"
               style="fill:#ffffff;fill-opacity:1;fill-rule:nonzero;stroke:none"
               d="m 370.0981,724.9741 -17.9989,-25.9498 -4.2312,-0.9515 -13.8225,-23.8373 -4.7842,-1.5046 -25.336,-37.7172 13.6623,34.6595 5.3562,1.3517 8.9529,21.9991 7.119,2.4442 9.3476,23.1222 21.7348,6.3837 z" /><path
               id="path62"
               style="fill:#ffffff;fill-opacity:1;fill-rule:nonzero;stroke:none"
               d="m 331.1636,763.5357 -17.9987,-25.9497 -4.2312,-0.9515 -13.8226,-23.8374 -4.7842,-1.5045 -25.3359,-37.7171 13.6623,34.6594 5.3562,1.3517 8.9528,21.9991 7.119,2.4441 9.3477,23.1223 21.7346,6.3836 z" /><path
               id="path64"
               style="fill:#ffffff;fill-opacity:1;fill-rule:nonzero;stroke:none"
               d="m 311.5105,783.391 -17.9988,-25.9498 -4.2312,-0.9515 -13.8225,-23.8374 -4.7842,-1.5045 -25.336,-37.7171 13.6623,34.6594 5.3562,1.3517 8.9529,21.9991 7.119,2.4441 9.3476,23.1223 21.7347,6.3837 z" /><path
               id="path66"
               style="fill:#ffffff;fill-opacity:0.50199998;fill-rule:nonzero;stroke:none"
               d="m 225.4888,674.1932 78.2003,78.2004 78.2004,-78.2004 -78.2004,-78.2003 -78.2003,78.2003 z" /><g
               transform="matrix(5.345059e-5,5.345059e-5,5.345059e-5,-5.345059e-5,225.4888,674.1932)"
               id="g68"><path
                 id="path70"
                 style="fill:none;stroke:#000000;stroke-width:25400;stroke-linecap:round;stroke-linejoin:round;stroke-miterlimit:10;stroke-dasharray:none;stroke-opacity:1"
                 d="m 0,0 1463040,0 0,1463040 L 0,1463040 0,0 Z" /></g><g
               transform="matrix(5.345059e-5,5.345059e-5,-5.345059e-5,5.345059e-5,372.4405,664.4062)"
               id="g72"><path
                 id="path74"
                 style="fill:none;stroke:#000000;stroke-width:25400;stroke-linecap:butt;stroke-linejoin:miter;stroke-miterlimit:8;stroke-dasharray:none;stroke-opacity:1"
                 d="M 0,0 1,1463040" /></g><g
               transform="matrix(5.345059e-5,5.345059e-5,-5.345059e-5,5.345059e-5,362.6307,654.5964)"
               id="g76"><path
                 id="path78"
                 style="fill:none;stroke:#000000;stroke-width:25400;stroke-linecap:butt;stroke-linejoin:miter;stroke-miterlimit:8;stroke-dasharray:none;stroke-opacity:1"
                 d="M 0,0 1,1463040" /></g><g
               transform="matrix(5.345059e-5,5.345059e-5,-5.345059e-5,5.345059e-5,352.8211,644.7867)"
               id="g80"><path
                 id="path82"
                 style="fill:none;stroke:#000000;stroke-width:25400;stroke-linecap:butt;stroke-linejoin:miter;stroke-miterlimit:8;stroke-dasharray:none;stroke-opacity:1"
                 d="M 0,0 1,1463040" /></g><g
               transform="matrix(5.345059e-5,5.345059e-5,-5.345059e-5,5.345059e-5,343.0113,634.977)"
               id="g84"><path
                 id="path86"
                 style="fill:none;stroke:#000000;stroke-width:25400;stroke-linecap:butt;stroke-linejoin:miter;stroke-miterlimit:8;stroke-dasharray:none;stroke-opacity:1"
                 d="M 0,0 1,1463040" /></g><g
               transform="matrix(5.345059e-5,5.345059e-5,-5.345059e-5,5.345059e-5,333.2015,625.1673)"
               id="g88"><path
                 id="path90"
                 style="fill:none;stroke:#000000;stroke-width:25400;stroke-linecap:butt;stroke-linejoin:miter;stroke-miterlimit:8;stroke-dasharray:none;stroke-opacity:1"
                 d="M 0,0 1,1463040" /></g><g
               transform="matrix(5.345059e-5,5.345059e-5,-5.345059e-5,5.345059e-5,313.582,605.5477)"
               id="g92"><path
                 id="path94"
                 style="fill:none;stroke:#000000;stroke-width:25400;stroke-linecap:butt;stroke-linejoin:miter;stroke-miterlimit:8;stroke-dasharray:none;stroke-opacity:1"
                 d="M 0,0 1,1463040" /></g><g
               transform="matrix(5.345059e-5,5.345059e-5,-5.345059e-5,5.345059e-5,323.3918,615.3575)"
               id="g96"><path
                 id="path98"
                 style="fill:none;stroke:#000000;stroke-width:25400;stroke-linecap:butt;stroke-linejoin:miter;stroke-miterlimit:8;stroke-dasharray:none;stroke-opacity:1"
                 d="M 0,0 1,1463040" /></g><g
               transform="matrix(5.345059e-5,-5.345059e-5,5.345059e-5,5.345059e-5,294.1252,605.5569)"
               id="g100"><path
                 id="path102"
                 style="fill:none;stroke:#000000;stroke-width:25400;stroke-linecap:butt;stroke-linejoin:miter;stroke-miterlimit:8;stroke-dasharray:none;stroke-opacity:1"
                 d="M 0,0 1,1463040" /></g><g
               transform="matrix(5.345059e-5,-5.345059e-5,5.345059e-5,5.345059e-5,284.3684,615.3136)"
               id="g104"><path
                 id="path106"
                 style="fill:none;stroke:#000000;stroke-width:25400;stroke-linecap:butt;stroke-linejoin:miter;stroke-miterlimit:8;stroke-dasharray:none;stroke-opacity:1"
                 d="M 0,0 1,1463040" /></g><g
               transform="matrix(5.345059e-5,-5.345059e-5,5.345059e-5,5.345059e-5,274.6116,625.0705)"
               id="g108"><path
                 id="path110"
                 style="fill:none;stroke:#000000;stroke-width:25400;stroke-linecap:butt;stroke-linejoin:miter;stroke-miterlimit:8;stroke-dasharray:none;stroke-opacity:1"
                 d="M 0,0 1,1463040" /></g><g
               transform="matrix(5.345059e-5,-5.345059e-5,5.345059e-5,5.345059e-5,264.8548,634.8273)"
               id="g112"><path
                 id="path114"
                 style="fill:none;stroke:#000000;stroke-width:25400;stroke-linecap:butt;stroke-linejoin:miter;stroke-miterlimit:8;stroke-dasharray:none;stroke-opacity:1"
                 d="M 0,0 1,1463040" /></g><g
               transform="matrix(5.345059e-5,-5.345059e-5,5.345059e-5,5.345059e-5,255.098,644.5841)"
               id="g116"><path
                 id="path118"
                 style="fill:none;stroke:#000000;stroke-width:25400;stroke-linecap:butt;stroke-linejoin:miter;stroke-miterlimit:8;stroke-dasharray:none;stroke-opacity:1"
                 d="M 0,0 1,1463040" /></g><g
               transform="matrix(5.345059e-5,-5.345059e-5,5.345059e-5,5.345059e-5,235.5843,664.0977)"
               id="g120"><path
                 id="path122"
                 style="fill:none;stroke:#000000;stroke-width:25400;stroke-linecap:butt;stroke-linejoin:miter;stroke-miterlimit:8;stroke-dasharray:none;stroke-opacity:1"
                 d="M 0,0 1,1463040" /></g><g
               transform="matrix(5.345059e-5,-5.345059e-5,5.345059e-5,5.345059e-5,245.3411,654.3409)"
               id="g124"><path
                 id="path126"
                 style="fill:none;stroke:#000000;stroke-width:25400;stroke-linecap:butt;stroke-linejoin:miter;stroke-miterlimit:8;stroke-dasharray:none;stroke-opacity:1"
                 d="M 0,0 1,1463040" /></g><path
               id="path128"
               style="fill:#ffffff;fill-opacity:1;fill-rule:nonzero;stroke:none"
               d="m 376.64,419.744 -39.7227,-5.8507 -4.6844,2.4134 -34.0386,-7.3694 -5.684,2.4134 -56.9903,-9.1107 43.6753,15.4506 6.063,-2.9466 27.9757,9.6 8.6436,-3.44 29.3477,10.136 25.4147,-11.296 z" /><path
               id="path130"
               style="fill:#ffffff;fill-opacity:1;fill-rule:nonzero;stroke:none"
               d="m 376.64,269.4006 -39.7227,-5.6557 -4.6844,2.3329 -34.0386,-7.1238 -5.684,2.3329 -56.9903,-8.8069 43.6753,14.9357 6.063,-2.8485 27.9757,9.28 8.6436,-3.3253 29.3477,9.7981 25.4147,-10.9194 z" /><path
               id="path132"
               style="fill:#ffffff;fill-opacity:1;fill-rule:nonzero;stroke:none"
               d="m 376.64,198.7371 -35.9395,-5.4607 -4.2383,2.2525 -30.7969,-6.8781 -5.1427,2.2525 -51.5626,-8.5033 39.5158,14.4206 5.4855,-2.7502 25.3114,8.96 7.8204,-3.2106 26.5527,9.4602 22.9942,-10.5429 z" /><path
               id="path134"
               style="fill:#ffffff;fill-opacity:1;fill-rule:nonzero;stroke:none"
               d="m 373.76,83.53709 -39.7227,-5.46067 -4.6844,2.25244 -34.0386,-6.87801 -5.684,2.25245 L 232.64,67.2 l 43.6753,14.42064 6.063,-2.75021 27.9757,8.95997 8.6436,-3.21062 L 348.3453,94.08 373.76,83.53709 Z" /></g></g></g></g></g></svg>